<?xml version="1.0" encoding="utf-8"?>
<!-- Generator: Adobe Illustrator 19.0.0, SVG Export Plug-In . SVG Version: 6.00 Build 0)  -->
<svg version="1.1" id="layer" xmlns="http://www.w3.org/2000/svg" xmlns:xlink="http://www.w3.org/1999/xlink" x="0px" y="0px"
	 viewBox="-153 -46 652 652" style="enable-background:new -153 -46 652 652;" xml:space="preserve">
<style type="text/css">
	.st0{fill:#FDC301;}
</style>
<g>
	<g>
		<path d="M451.4,270v-24c-2-1.4-4.9-2.4-8.4-2.4c-7.6,0-12.2,6.2-12.2,15.3c0,9.3,4.7,14.8,11.4,14.8
			C446.3,273.8,449.1,272.4,451.4,270 M469.6,206.6v80.1h-18.1V281c-3.4,3.5-8.5,7.3-15.3,7.3c-13.5,0-23.4-11.1-23.4-28.4
			c0-18.1,12.7-29.7,27.4-29.7c4,0,7.9,0.7,11.3,1.9v-23.3L469.6,206.6z"/>
		<path d="M380.5,283.3c-3.2,3-7.1,5.1-12.7,5.1c-9.4,0-16.8-6.7-16.8-15.2c0-5.8,2.4-11,9-14.6c4-2.2,9.6-3.8,17-4.5l0.8,8.9
			c-7,1.4-9.7,3.5-9.7,7.4c0,3.5,2.8,5.9,6.8,5.9L380.5,283.3z"/>
		<path d="M380.5,283.3l-5.6-6.9c3.7,0,6.6-1.5,8.5-3.7v-10.5c-2.1,0.3-3.9,0.5-5.6,0.8l-0.8-8.9c2-0.2,4.1-0.3,6.3-0.4v-1.1
			c0-5.8-3-8.4-9.7-8.4c-5.7,0-12.2,2.4-18.6,5.5l-3.8-13.3c5.8-3.1,14.9-6.5,25.2-6.5c18.9,0,25.2,8.6,25,23.9l-0.1,15.8
			c0,3.8,0.7,4.1,4.5,4.5l-1.8,13c-11.9,1.5-17.8-1.6-20.3-7.6l-0.4,0.4C382.5,281.2,381.5,282.3,380.5,283.3"/>
		<path d="M340.9,273.2v13.4h-18.1V281c-3.4,3.5-8.5,7.3-15.3,7.3c-13.5,0-23.5-11.1-23.5-28.4c0-18.1,12.7-29.7,27.4-29.7
			c4,0,7.9,0.7,11.3,1.9v-23.3l18.1-2.2v30V273.2z M322.7,270v-24c-2-1.4-5-2.4-8.4-2.4c-7.7,0-12.3,6.2-12.3,15.3
			c0,9.3,4.7,14.8,11.4,14.8C317.5,273.8,320.3,272.4,322.7,270"/>
		<polygon points="273.7,230.6 273.7,286.7 255.5,286.7 255.5,232.8 		"/>
		<path d="M275.3,214.5c0,6.2-4,9.7-10.7,9.7c-6.6,0-10.7-3.4-10.7-9.7c0-6.3,4.1-9.8,10.7-9.8C271.3,204.7,275.3,208.1,275.3,214.5
			"/>
		<path d="M250.6,232.3l-3.7,16c-2.1-1.1-4.5-1.6-6.9-1.6c-4.4,0-8.5,2.2-11.8,8v31.9h-18.1v-53.8l18.1-2.2v8
			c3.2-5.5,7.4-8.5,13.2-8.5C244.5,230.1,247.7,230.8,250.6,232.3"/>
		<path class="st0" d="M469.8,303.7c0,0-355.6,8.7-600,43.9l3.4-16.6c245.1-29.6,596.6-28.9,596.6-28.9V303.7z"/>
		<path d="M169.6,276.4l5.6,6.9c-3.3,3-7.1,5.1-12.8,5.1c-9.4,0-16.7-6.7-16.7-15.2c0-5.8,2.4-11,9-14.6c4.1-2.2,9.6-3.8,17.1-4.5
			l0.8,8.9c-7,1.4-9.7,3.5-9.7,7.4C162.7,274.1,165.6,276.4,169.6,276.4"/>
		<path d="M178.5,279.6l-0.3,0.4c-1,1.2-2,2.3-3,3.2l-5.6-6.9c3.7,0,6.6-1.5,8.5-3.7v-10.5c-2.1,0.3-3.9,0.5-5.5,0.8l-0.8-8.9
			c2-0.2,4.1-0.3,6.3-0.4v-1.1c0-5.8-2.9-8.4-9.6-8.4c-5.7,0-12.3,2.4-18.6,5.5l-3.8-13.3c5.8-3.1,14.8-6.5,25.2-6.5
			c19,0,25.2,8.6,25,23.9l-0.1,15.8c0,3.8,0.7,4.1,4.5,4.5l-1.8,13C186.9,288.8,181,285.6,178.5,279.6"/>
		<path d="M135.5,273.2v13.4h-18.1V281c-3.4,3.5-8.5,7.3-15.3,7.3c-13.5,0-23.4-11.1-23.4-28.4c0-18.1,12.7-29.7,27.4-29.7
			c4,0,7.9,0.7,11.3,1.9v-23.3l18.1-2.2v30V273.2z M117.4,270v-24c-2-1.4-5-2.4-8.4-2.4c-7.6,0-12.2,6.2-12.2,15.3
			c0,9.3,4.7,14.8,11.4,14.8C112.2,273.8,115,272.4,117.4,270"/>
		<polygon points="68.3,230.6 68.3,286.7 50.2,286.7 50.2,232.8 		"/>
		<path d="M70,214.5c0,6.2-4,9.7-10.7,9.7c-6.6,0-10.7-3.4-10.7-9.7c0-6.3,4.1-9.8,10.7-9.8C66,204.7,70,208.1,70,214.5"/>
		<polygon points="36.6,206.6 36.6,286.7 18.5,286.7 18.5,208.8 		"/>
		<path d="M-20.4,230.1c16.5,0,29,10.6,29,29c0,18.4-13.3,29.3-29.7,29.3c-16.5,0-29.1-10.3-29.1-28.9
			C-50.2,240.8-37,230.1-20.4,230.1 M-9.4,259.2c0-9.2-4-15.3-11.4-15.3c-7.4,0-11.3,6-11.3,15.4c0,9.3,4,15.2,11.4,15.2
			C-13.3,274.5-9.4,268.6-9.4,259.2"/>
		<path d="M-81.4,242.3c11.3,3,23.1,8.2,23.1,22.2c0,14-10.8,23.9-30.1,23.9c-11,0-21.6-2.8-28.4-6.7l3.5-15.6
			c7.3,3.9,16.1,6.9,25.2,6.9c6.6,0,11.2-2.5,11.2-7c0-4.9-5.3-6.6-15.1-9.3c-10.7-2.9-23.7-7.9-23.7-22.6c0-13.7,10-22.7,28.3-22.7
			c11.5,0,20.5,2.6,27.6,6.5l-3.7,15.4c-7.3-3.9-16.5-6.5-23.8-6.5c-6.5,0-9.7,2.2-9.7,6.2C-96.9,237.9-90.2,239.8-81.4,242.3"/>
	</g>
</g>
</svg>